<?xml version="1.0" encoding="UTF-8"?>
<svg xmlns="http://www.w3.org/2000/svg" version="1.1" viewBox="0 0 481 171.6">
  <defs>
    <style>
      .cls-1 {
        fill: #5f694b;
      }

      .cls-2 {
        fill: #a5b683;
      }
    </style>
  </defs>
  <!-- Generator: Adobe Illustrator 28.6.0, SVG Export Plug-In . SVG Version: 1.2.0 Build 709)  -->
  <g>
    <g id="Layer_1">
      <path class="cls-1" d="M28.2,127.1L44.7,13.3h30.4l-4.4,30.9h46.4c3.8,0,6.7.4,8.7,1.2,2,.8,3.4,2,4.2,3.4.7,1.5,1,3.3.9,5.3s-.4,4.1-.7,6.4l-7.1,49.1c-.4,2.8-.8,5.3-1.3,7.5-.5,2.2-1.3,4.1-2.6,5.6-1.2,1.4-3,2.5-5.2,3.3-2.2.8-5.2,1.2-9,1.2H28.2ZM69,54.9l-8.9,61.4h21.1c2.1,0,3.8-.1,5.1-.3,1.4-.2,2.5-.7,3.4-1.4.8-.7,1.5-1.8,2-3.3.5-1.5,1-3.5,1.3-5.9l5.8-40.1c.3-2.2.4-3.9.4-5.2,0-1.3-.4-2.4-1-3.2-.7-.7-1.7-1.2-3-1.5-1.3-.3-3-.4-5.2-.4h-21.1Z"/>
      <path class="cls-2" d="M117.1,117.1c-.1-2-.4-4.2-.7-6.4l-7.1-49.1c-.4-2.8-.8-5.3-1.3-7.5-.5-2.2-1.4-4.2-2.7-5.8-1.3-1.5-3.1-2.6-5.3-3.4-2.2-.8-5.3-1.2-9.1-1.2H13.9l16.5,114.5h31l-4.4-30.9h46.1c3.8,0,6.8-.4,8.8-1.3,2-.8,3.5-2,4.4-3.5.7-1.6,1-3.4.9-5.5ZM85.1,111.2c0,1.3-.4,2.3-.9,3-.7.7-1.6,1.1-2.9,1.4-1.3.3-3,.4-5.1.4h-20.9l-8.8-60.8h20.8c2,0,3.7.1,5.1.3,1.3.2,2.4.6,3.3,1.3.8.7,1.4,1.8,1.9,3.2.5,1.5,1,3.4,1.3,5.9l5.8,40.1c.3,2.1.4,3.9.4,5.2Z"/>
      <g>
        <path class="cls-1" d="M205.6,60v-.2c2.6-.4,3.5-2.7,3.5-5v-2.7c0-3.6-1.3-7.1-5.8-7.1h-18.5v31.8h18.8c3.6,0,6.3-2.3,6.3-6.8v-3.8c0-4.8-2-6.1-4.4-6.3ZM187.8,48.6h15.3c.9,0,3.1.4,3.1,3.3v2.9c0,3.2-1.7,3.9-3.2,3.9h-15.2v-10.1ZM207,69.1c0,2.8-1,4.3-3.7,4.3h-15.5v-11.1h15.1c2.7,0,4.2.6,4.2,4.6v2.3Z"/>
        <path class="cls-1" d="M239.1,44.7h-12.5c-5.9,0-7.7,3.9-7.7,11.9v8.7c0,8,1.9,11.9,7.7,11.9h12.5c5.9,0,7.7-3.9,7.7-11.9v-8.7c0-8-1.9-11.9-7.7-11.9ZM243.9,66.9c0,5.5-2.3,6.8-5.1,6.8h-11.9c-2.8,0-5.1-1.2-5.1-6.8v-11.9c0-5.5,2.3-6.8,5.1-6.8h11.9c2.8,0,5.1,1.2,5.1,6.8v11.9Z"/>
        <polygon class="cls-1" points="279 48.1 279 45.1 255.2 45.1 255.2 48.6 274.4 48.6 254.6 73.5 254.6 76.8 279.4 76.8 279.4 73.3 259.1 73.3 279 48.1"/>
        <polygon class="cls-1" points="290.7 62.2 308.4 62.2 308.4 58.7 290.7 58.7 290.7 48.6 309.1 48.6 309.1 45.1 287.8 45.1 287.8 76.8 309.2 76.8 309.2 73.3 290.7 73.3 290.7 62.2"/>
        <polygon class="cls-1" points="335 71.7 322.3 45.1 317.7 45.1 317.7 76.8 320.7 76.8 320.7 48.9 320.7 48.9 333.9 76.8 336 76.8 349.3 48.9 349.3 48.9 349.3 76.8 352.3 76.8 352.3 45.1 347.7 45.1 335 71.7"/>
        <path class="cls-1" d="M372.5,45.1l-12.9,31.8h3.3l2.7-6.7h17.4l2.7,6.7h3.3l-12.9-31.8h-3.7ZM367.1,66.6l7.3-18,7.3,18h-14.6Z"/>
        <polygon class="cls-1" points="420.7 45.1 420.7 73 400.8 45.1 396.4 45.1 396.4 76.8 399.4 76.8 399.4 48.9 419.3 76.8 423.6 76.8 423.6 45.1 420.7 45.1"/>
      </g>
      <g>
        <path class="cls-1" d="M152.5,92.1h-4.6c-2.4,0-2.7-.6-2.7-2.6s1-2.9,4-2.9h1.7c4,0,4.2.4,4.2,3.1h0c0,.1,1.7.1,1.7.1v-.7c0-2.9-.8-4.6-5-4.6h-3.4c-3.1,0-4.9.8-4.9,4.8s1.7,5,6.5,5h3c1.9,0,2.4.5,2.4,2.5s-.6,3-2.8,3h-4.8c-1.8,0-2.4-.6-2.4-2.3v-1.3h-1.7v1.4c0,3.9,2.2,4.4,4.4,4.4h4.3c2.4,0,4.8-.4,4.8-4.6v-1.1c0-3-1.4-4.3-4.4-4.3Z"/>
        <path class="cls-1" d="M171.3,84.7h-9.6v17.1h1.8v-6.6h7.5c3.6,0,3.7-2.1,3.7-5.8s-1.2-4.7-3.4-4.7ZM172.9,90.8c0,1.6-.6,2.3-1.9,2.3h-7.6v-6.3h7.4c1.3,0,2,.4,2,2.4v1.6Z"/>
        <path class="cls-1" d="M189.5,84.5h-6.6c-3.5,0-4.2,2.6-4.2,6.4v4.6c0,3.9.7,6.4,4.2,6.4h6.6c3.5,0,4.2-2.6,4.2-6.4v-4.6c0-3.9-.7-6.4-4.2-6.4ZM191.9,96.5c0,3.1-1.3,3.5-2.6,3.5h-6.3c-1.3,0-2.6-.4-2.6-3.5v-6.3c0-3.1,1.3-3.5,2.6-3.5h6.3c1.3,0,2.6.4,2.6,3.5v6.3Z"/>
        <path class="cls-1" d="M207.7,84.7h-9.4v17.1h1.8v-6.7h7.5c1.3,0,2.2.2,2.2,2.8v3.8h1.7v-4.4c0-1.2-.2-2.6-1.7-3.2,1.3-.3,1.8-1.3,1.8-3.2v-1.4c0-3.3-.6-4.9-4-4.9ZM209.9,90.7c0,1.7-.7,2.3-2.3,2.3h-7.4v-6.2h7c2.3,0,2.7.6,2.7,2.4v1.5Z"/>
        <polygon class="cls-1" points="221 101.9 222.8 101.9 222.8 86.8 228.7 86.8 228.7 84.7 215.2 84.7 215.2 86.8 221 86.8 221 101.9"/>
        <path class="cls-1" d="M252.6,100.3l2.2,1.6.7-2-2.3-1.8c0-.4,0-.8,0-1.2v-3.7h-1.7v3.6l-8.7-6.7c-.5-.4-.5-.8-.5-1.9s.2-1.6,1.4-1.6h5.2c.9,0,1.4.6,1.4,1.9v1.4h1.7v-1.5c0-2.6-1-3.9-3.1-3.9h-5.6c-1.7,0-2.7,1.3-2.7,3.5s.2,2.7,1.1,3.6c-2.2.1-2.7,1.8-2.7,4.7s.7,5.7,4.3,5.7h5.6c1.5,0,3.1-.2,3.9-1.8ZM248.5,99.9h-5.3c-2.1,0-2.5-1-2.5-3v-1.1c0-2.7,1.5-2.8,1.8-2.8h.4l8.1,6.2c-.2.5-1,.8-2.4.8Z"/>
        <path class="cls-1" d="M270.6,95.2h7.5c3.6,0,3.7-2.1,3.7-5.8s-1.2-4.7-3.4-4.7h-9.6v17.1h1.8v-6.6ZM270.6,86.8h7.4c1.3,0,2,.4,2,2.4v1.6c0,1.6-.6,2.3-1.9,2.3h-7.6v-6.3Z"/>
        <polygon class="cls-1" points="297.6 99.7 287.8 99.7 287.8 94.1 297.2 94.1 297.2 92 287.8 92 287.8 86.8 297.6 86.8 297.6 84.7 286 84.7 286 101.9 297.6 101.9 297.6 99.7"/>
        <path class="cls-1" d="M313.4,98v3.8h1.7v-4.4c0-1.2-.2-2.6-1.7-3.2,1.3-.3,1.8-1.3,1.8-3.2v-1.4c0-3.3-.6-4.9-4-4.9h-9.4v17.1h1.8v-6.7h7.5c1.3,0,2.2.2,2.2,2.8ZM303.7,93.1v-6.2h7c2.3,0,2.7.6,2.7,2.4v1.5c0,1.7-.7,2.3-2.3,2.3h-7.4Z"/>
        <polygon class="cls-1" points="330.8 92 321.8 92 321.8 86.8 331.2 86.8 331.2 84.7 320 84.7 320 101.9 321.8 101.9 321.8 94.1 330.8 94.1 330.8 92"/>
        <path class="cls-1" d="M350.4,95.6v-4.6c0-3.9-.7-6.4-4.2-6.4h-6.6c-3.5,0-4.2,2.6-4.2,6.4v4.6c0,3.9.7,6.4,4.2,6.4h6.6c3.5,0,4.2-2.6,4.2-6.4ZM339.7,99.9c-1.3,0-2.6-.4-2.6-3.5v-6.3c0-3.1,1.3-3.5,2.6-3.5h6.3c1.3,0,2.6.4,2.6,3.5v6.3c0,3.1-1.3,3.5-2.6,3.5h-6.3Z"/>
        <path class="cls-1" d="M366.5,98v3.8h1.7v-4.4c0-1.2-.2-2.6-1.7-3.2,1.3-.3,1.8-1.3,1.8-3.2v-1.4c0-3.3-.6-4.9-4-4.9h-9.4v17.1h1.8v-6.7h7.5c1.3,0,2.2.2,2.2,2.8ZM356.9,93.1v-6.2h7c2.3,0,2.7.6,2.7,2.4v1.5c0,1.7-.7,2.3-2.3,2.3h-7.4Z"/>
        <polygon class="cls-1" points="381.7 101.9 383 101.9 389.8 87.4 389.8 101.9 391.6 101.9 391.6 84.7 389 84.7 382.3 98.7 375.7 84.8 375.7 84.7 373 84.7 373 101.9 374.8 101.9 374.8 87.4 381.7 101.8 381.7 101.9"/>
        <path class="cls-1" d="M404.3,84.7h-2.1l-6.9,17v.2c0,0,2,0,2,0l1.4-3.6h9.1l1.4,3.5h0c0,0,2,0,2,0l-6.9-17.1h0ZM399.6,96.2l3.7-9.1,3.7,9.1h-7.4Z"/>
        <polygon class="cls-1" points="427.8 99.3 417.4 84.8 417.4 84.7 414.9 84.7 414.9 101.9 416.7 101.9 416.7 87.3 427 101.8 427.1 101.9 429.6 101.9 429.6 84.7 427.8 84.7 427.8 99.3"/>
        <path class="cls-1" d="M446.7,97.1c0,2.2-.6,2.8-2.6,2.8h-5.5c-1.3,0-2.6-.4-2.6-3.5v-6.3c0-3.1,1.3-3.5,2.6-3.5h5.4c1.2,0,2.5,0,2.5,2.9v.9h1.6v-1.6c0-2.9-1.3-4.3-3.7-4.3h-6c-3.5,0-4.2,2.6-4.2,6.4v4.6c0,3.9.7,6.4,4.2,6.4h5.9c3.4,0,4-1.8,4-4.8v-1.3h-1.7v1.2Z"/>
        <polygon class="cls-1" points="454.7 99.7 454.7 94.1 464.1 94.1 464.1 92 454.7 92 454.7 86.8 464.5 86.8 464.5 84.7 452.9 84.7 452.9 101.9 464.6 101.9 464.6 99.7 454.7 99.7"/>
        <path class="cls-1" d="M225.5,109.7h-9.6v17.1h1.8v-6.6h7.5c3.6,0,3.7-2.1,3.7-5.8s-1.2-4.7-3.4-4.7ZM227.1,115.8c0,1.6-.6,2.3-1.9,2.3h-7.6v-6.3h7.4c1.3,0,2,.4,2,2.4v1.6Z"/>
        <path class="cls-1" d="M241.8,117h-4.6c-2.4,0-2.7-.6-2.7-2.6s1-2.9,4-2.9h1.7c4,0,4.2.4,4.2,3h0c0,.1,1.7.1,1.7.1v-.7c0-2.9-.8-4.6-5-4.6h-3.4c-3.1,0-4.9.8-4.9,4.8s1.7,5,6.5,5h3c1.9,0,2.4.5,2.4,2.5s-.6,3-2.8,3h-4.8c-1.8,0-2.4-.6-2.4-2.3v-1.3h-1.7v1.4c0,3.9,2.2,4.4,4.4,4.4h4.3c2.4,0,4.8-.4,4.8-4.6v-1.1c0-3-1.4-4.3-4.4-4.3Z"/>
        <polygon class="cls-1" points="257.3 117.4 252.1 109.7 252.1 109.7 249.7 109.7 256.4 119.6 256.4 126.8 258.2 126.8 258.2 119.6 264.9 109.7 262.5 109.7 257.3 117.4"/>
        <path class="cls-1" d="M280.8,122.1c0,2.2-.6,2.8-2.6,2.8h-5.5c-1.3,0-2.6-.4-2.6-3.5v-6.3c0-3.1,1.3-3.5,2.6-3.5h5.4c1.5,0,2.5.2,2.5,2.9v.9h1.6v-1.6c0-2.9-1.3-4.3-3.7-4.3h-6c-3.5,0-4.2,2.6-4.2,6.4v4.6c0,3.9.7,6.4,4.2,6.4h5.9c3.4,0,4-1.8,4-4.8v-1.3h-1.7v1.2Z"/>
        <polygon class="cls-1" points="299 116.9 288.8 116.9 288.8 109.7 287 109.7 287 126.8 288.8 126.8 288.8 119 299 119 299 126.8 300.8 126.8 300.8 109.7 299 109.7 299 116.9"/>
        <path class="cls-1" d="M316.4,109.5h-6.6c-3,0-4.2,1.9-4.2,6.4v4.6c0,3.9.7,6.4,4.2,6.4h6.6c3.5,0,4.2-2.6,4.2-6.4v-4.6c0-3.9-.7-6.4-4.2-6.4ZM318.9,121.4c0,3.1-1.3,3.5-2.6,3.5h-6.3c-1.3,0-2.6-.4-2.6-3.5v-6.3c0-3.1,1.3-3.5,2.6-3.5h6.3c1.3,0,2.6.4,2.6,3.5v6.3Z"/>
        <polygon class="cls-1" points="327.2 109.7 325.4 109.7 325.4 126.8 336.2 126.8 336.2 124.7 327.2 124.7 327.2 109.7"/>
        <path class="cls-1" d="M350.4,109.5h-6.6c-3,0-4.2,1.9-4.2,6.4v4.6c0,3.9.7,6.4,4.2,6.4h6.6c3.5,0,4.2-2.6,4.2-6.4v-4.6c0-3.9-.7-6.4-4.2-6.4ZM352.9,121.4c0,3.1-1.3,3.5-2.6,3.5h-6.3c-1.3,0-2.6-.4-2.6-3.5v-6.3c0-3.1,1.3-3.5,2.6-3.5h6.3c1.3,0,2.6.4,2.6,3.5v6.3Z"/>
        <path class="cls-1" d="M366.1,120.3h5.9v1.6c0,2.1-.7,3-2.4,3h-6.1c-1.3,0-2.6-.4-2.6-3.5v-6.3c0-3.1,1.3-3.5,2.6-3.5h4.1c3.8,0,4.4.2,4.4,3.3h0c0,.1,1.7.1,1.7.1v-.7c0-3.2-1.4-4.8-4.4-4.8h-5.9c-3,0-4.2,1.9-4.2,6.4v4.6c0,3.9.7,6.4,4.2,6.4h6.4c3,0,4-1.7,4-6.4v-2.5h-7.7v2.1Z"/>
        <polygon class="cls-1" points="384.9 117.4 379.7 109.7 379.6 109.7 377.2 109.7 384 119.6 384 126.8 385.8 126.8 385.8 119.6 392.5 109.7 390.1 109.7 384.9 117.4"/>
      </g>
    </g>
  </g>
</svg>