<?xml version="1.0" encoding="utf-8"?>
<!-- Generator: Adobe Illustrator 28.0.0, SVG Export Plug-In . SVG Version: 6.00 Build 0)  -->
<svg version="1.1" id="Layer_1" xmlns="http://www.w3.org/2000/svg" xmlns:xlink="http://www.w3.org/1999/xlink" x="0px" y="0px"
	 viewBox="0 0 216.8 266.3" style="enable-background:new 0 0 216.8 266.3;" xml:space="preserve">
<style type="text/css">
	.st0{fill:#5F694B;}
	.st1{fill:#A5B683;}
</style>
<g>
	<path class="st0" d="M53.2,159L73.8,16.2h38.1l-5.6,38.7h58.2c4.8,0,8.4,0.5,10.9,1.5c2.5,1,4.3,2.5,5.3,4.3
		c0.9,1.9,1.2,4.2,1.1,6.7s-0.5,5.2-0.9,8l-8.9,61.5c-0.5,3.5-1,6.6-1.6,9.4c-0.6,2.8-1.7,5.1-3.2,7.1c-1.6,1.8-3.7,3.2-6.5,4.2
		c-2.8,1-6.6,1.5-11.3,1.5H53.2z M104.3,68.4l-11.1,77h26.5c2.6,0,4.7-0.1,6.4-0.4c1.7-0.3,3.2-0.8,4.3-1.7c1-0.9,1.9-2.3,2.5-4.2
		c0.7-1.9,1.2-4.4,1.7-7.4l7.3-50.3c0.4-2.7,0.5-4.9,0.5-6.6c-0.1-1.7-0.5-3-1.3-4.1c-0.9-0.9-2.2-1.5-3.8-1.8
		c-1.6-0.3-3.8-0.5-6.5-0.5H104.3z"/>
</g>
<path class="st1" d="M164.6,146.4c-0.2-2.5-0.5-5.2-0.9-8.1l-8.9-61.5c-0.5-3.5-1.1-6.6-1.6-9.4c-0.6-2.8-1.7-5.2-3.3-7.2
	c-1.6-1.8-3.8-3.3-6.7-4.3c-2.8-1-6.7-1.5-11.5-1.5H35.2L55.8,198h38.9l-5.6-38.7H147c4.8,0,8.5-0.5,11-1.6c2.6-1.1,4.4-2.5,5.5-4.4
	C164.4,151.3,164.8,149,164.6,146.4z M124.5,139c-0.1,1.6-0.5,2.9-1.1,3.8c-0.8,0.8-2.1,1.4-3.6,1.7c-1.6,0.3-3.8,0.5-6.4,0.5H87.1
	l-11-76.3h26.1c2.5,0,4.7,0.1,6.4,0.4c1.6,0.2,3,0.8,4.1,1.7c1,0.9,1.8,2.2,2.4,4c0.6,1.8,1.2,4.3,1.6,7.4l7.3,50.3
	C124.4,135.1,124.5,137.3,124.5,139z"/>
<g>
	<path class="st0" d="M7.7,239.7h9.8c2.2,0,3.4,0.7,3.4,4.7c0,3.9-0.2,5.8-3.7,5.8H9.3v6.8H7.7V239.7z M19.3,244.2
		c0-2.1-0.8-2.6-2.2-2.6H9.3v6.7h7.9c1.3,0,2-0.7,2-2.5V244.2z"/>
	<path class="st0" d="M25.4,239.7h11.7v1.9H27.1v5.5h9.7v1.9h-9.7v6.1h10.1v1.9H25.4V239.7z"/>
	<path class="st0" d="M41.8,239.7h9.5c3.4,0,4,1.7,4,4.9v1.4c0,2.4-1,3.1-2.2,3.3v0c1.6,0.4,2,1.7,2,3.3v4.4h-1.5v-3.8
		c0-2.7-0.9-3.1-2.4-3.1h-7.8v6.9h-1.6V239.7z M51.2,248.3c1.8,0,2.5-0.7,2.5-2.5v-1.6c0-1.9-0.6-2.6-2.9-2.6h-7.3v6.7H51.2z"/>
	<path class="st0" d="M60.4,239.7h11.3v1.9h-9.7v5.5h9.3v1.9h-9.3v8h-1.6V239.7z"/>
	<path class="st0" d="M76.2,246c0-4.4,1-6.5,4.2-6.5h6.8c3.2,0,4.2,2.1,4.2,6.5v4.8c0,4.4-1,6.5-4.2,6.5h-6.8
		c-3.2,0-4.2-2.1-4.2-6.5V246z M89.9,245.1c0-3-1.2-3.7-2.8-3.7h-6.5c-1.5,0-2.8,0.7-2.8,3.7v6.5c0,3,1.2,3.7,2.8,3.7h6.5
		c1.5,0,2.8-0.7,2.8-3.7V245.1z"/>
	<path class="st0" d="M96.6,239.7h9.5c3.4,0,4,1.7,4,4.9v1.4c0,2.4-1,3.1-2.2,3.3v0c1.6,0.4,2,1.7,2,3.3v4.4h-1.5v-3.8
		c0-2.7-0.9-3.1-2.4-3.1h-7.8v6.9h-1.6V239.7z M105.9,248.3c1.8,0,2.5-0.7,2.5-2.5v-1.6c0-1.9-0.6-2.6-2.9-2.6h-7.3v6.7H105.9z"/>
	<path class="st0" d="M115.1,239.7h2.5l6.9,14.6l6.9-14.6h2.5v17.4h-1.6v-15.3h0l-7.2,15.3H124l-7.2-15.3h0v15.3h-1.6V239.7z"/>
	<path class="st0" d="M145.1,239.7h2l7.1,17.4h-1.8l-1.5-3.7h-9.5l-1.5,3.7H138L145.1,239.7z M146.1,241.6l-4,9.9h8L146.1,241.6z"/>
	<path class="st0" d="M158.2,239.7h2.4l10.9,15.3v-15.3h1.6v17.4h-2.4l-10.9-15.3v15.3h-1.6V239.7z"/>
	<path class="st0" d="M178.1,246c0-4.4,1-6.5,4.2-6.5h6.2c2.9,0,3.7,2,3.7,4.3v1.5h-1.4v-0.8c0-3-1.2-3.1-2.7-3.1h-5.6
		c-1.5,0-2.8,0.7-2.8,3.7v6.5c0,3,1.2,3.7,2.8,3.7h5.6c2.2,0,2.8-0.7,2.8-3v-1.1h1.5v1.2c0,3.1-0.7,4.9-4,4.9h-6.1
		c-3.2,0-4.2-2.1-4.2-6.5V246z"/>
	<path class="st0" d="M197.3,239.7H209v1.9H199v5.5h9.7v1.9H199v6.1h10.1v1.9h-11.7V239.7z"/>
</g>
<g>
	<path class="st0" d="M43.7,212.9h10.1c2.5,0,3.2,1.9,3.2,3.9v1.5c0,1.2-0.5,2.5-1.9,2.7v0.1c1.3,0.1,2.4,0.8,2.4,3.4v2.1
		c0,2.4-1.5,3.7-3.4,3.7H43.7V212.9z M55.4,216.6c0-1.6-1.2-1.8-1.7-1.8h-8.4v5.5h8.3c0.9,0,1.8-0.4,1.8-2.1V216.6z M55.9,224.8
		c0-2.2-0.8-2.5-2.3-2.5h-8.3v6.1h8.5c1.5,0,2-0.8,2-2.3V224.8z"/>
	<path class="st0" d="M62.4,219.2c0-4.4,1-6.5,4.2-6.5h6.8c3.2,0,4.2,2.1,4.2,6.5v4.8c0,4.4-1,6.5-4.2,6.5h-6.8
		c-3.2,0-4.2-2.1-4.2-6.5V219.2z M76.1,218.3c0-3-1.2-3.7-2.8-3.7h-6.5c-1.5,0-2.8,0.7-2.8,3.7v6.5c0,3,1.2,3.7,2.8,3.7h6.5
		c1.5,0,2.8-0.7,2.8-3.7V218.3z"/>
	<path class="st0" d="M81.9,228.4l10.9-13.6H82.3v-1.9h13v1.7l-10.9,13.8h11.1v1.9H81.9V228.4z"/>
	<path class="st0" d="M100.1,212.9h11.7v1.9h-10.1v5.5h9.7v1.9h-9.7v6.1h10.1v1.9h-11.7V212.9z"/>
	<path class="st0" d="M116.5,212.9h2.5l6.9,14.6l6.9-14.6h2.5v17.4h-1.6V215h0l-7.2,15.3h-1.1l-7.2-15.3h0v15.3h-1.6V212.9z"/>
	<path class="st0" d="M146.5,212.9h2l7.1,17.4h-1.8l-1.5-3.7h-9.5l-1.5,3.7h-1.8L146.5,212.9z M147.5,214.8l-4,9.9h8L147.5,214.8z"
		/>
	<path class="st0" d="M159.6,212.9h2.4l10.9,15.3v-15.3h1.6v17.4h-2.4L161.2,215v15.3h-1.6V212.9z"/>
</g>
</svg>
