<?xml version="1.0" encoding="utf-8"?>
<!-- Generator: Adobe Illustrator 28.0.0, SVG Export Plug-In . SVG Version: 6.00 Build 0)  -->
<svg version="1.1" id="Layer_1" xmlns="http://www.w3.org/2000/svg" xmlns:xlink="http://www.w3.org/1999/xlink" x="0px" y="0px"
	 viewBox="0 0 216.8 212.9" style="enable-background:new 0 0 216.8 212.9;" xml:space="preserve">
<style type="text/css">
	.st0{fill:#0F172A;}
	.st1{fill:#2563EB;}
</style>
<g>
	<path class="st0" d="M53.2,159L73.8,16.2h38.1l-5.6,38.7h58.2c4.8,0,8.4,0.5,10.9,1.5c2.5,1,4.3,2.5,5.3,4.3
		c0.9,1.9,1.2,4.2,1.1,6.7s-0.5,5.2-0.9,8l-8.9,61.5c-0.5,3.5-1,6.6-1.6,9.4c-0.6,2.8-1.7,5.1-3.2,7.1c-1.6,1.8-3.7,3.2-6.5,4.2
		c-2.8,1-6.6,1.5-11.3,1.5H53.2z M104.3,68.4l-11.1,77h26.5c2.6,0,4.7-0.1,6.4-0.4c1.7-0.3,3.2-0.8,4.3-1.7c1-0.9,1.9-2.3,2.5-4.2
		c0.7-1.9,1.2-4.4,1.7-7.4l7.3-50.3c0.4-2.7,0.5-4.9,0.5-6.6c-0.1-1.7-0.5-3-1.3-4.1c-0.9-0.9-2.2-1.5-3.8-1.8
		c-1.6-0.3-3.8-0.5-6.5-0.5H104.3z"/>
</g>
<path class="st1" d="M164.6,146.4c-0.2-2.5-0.5-5.2-0.9-8.1l-8.9-61.5c-0.5-3.5-1.1-6.6-1.6-9.4c-0.6-2.8-1.7-5.2-3.3-7.2
	c-1.6-1.8-3.8-3.3-6.7-4.3c-2.8-1-6.7-1.5-11.5-1.5H35.2L55.8,198h38.9l-5.6-38.7H147c4.8,0,8.5-0.5,11-1.6c2.6-1.1,4.4-2.5,5.5-4.4
	C164.4,151.3,164.8,149,164.6,146.4z M124.5,139c-0.1,1.6-0.5,2.9-1.1,3.8c-0.8,0.8-2.1,1.4-3.6,1.7c-1.6,0.3-3.8,0.5-6.4,0.5H87.1
	l-11-76.3h26.1c2.5,0,4.7,0.1,6.4,0.4c1.6,0.2,3,0.8,4.1,1.7c1,0.9,1.8,2.2,2.4,4c0.6,1.8,1.2,4.3,1.6,7.4l7.3,50.3
	C124.4,135.1,124.5,137.3,124.5,139z"/>
</svg>
